{
	"asset": {
		"version": "2.0",
		"generator": "Houdini GLTF 2.0 Exporter"
	},
	"accessors": [
		{
			"bufferView": 0,
			"componentType": 5123,
			"count": 540,
			"type": "SCALAR",
			"min": [0],
			"max": [539]
		},
		{
			"bufferView": 1,
			"componentType": 5126,
			"count": 540,
			"type": "VEC3",
			"min": [-5, 0, -1.27323949],
			"max": [5, 4.27323961, 5]
		},
		{
			"bufferView": 2,
			"componentType": 5126,
			"count": 540,
			"type": "VEC3",
			"min": [0, -2.38418806e-7, 0],
			"max": [0, 1, 1]
		},
		{
			"bufferView": 3,
			"componentType": 5123,
			"count": 2304,
			"type": "SCALAR",
			"min": [0],
			"max": [2303]
		},
		{
			"bufferView": 4,
			"componentType": 5126,
			"count": 2304,
			"type": "VEC3",
			"min": [-0.5, 0.300000012, -0.099999994],
			"max": [0.5, 1.29999995, 0.899999976]
		},
		{
			"bufferView": 5,
			"componentType": 5126,
			"count": 2304,
			"type": "VEC2",
			"min": [-1, -0.999893188],
			"max": [1.99989319, 2.99989319]
		},
		{
			"bufferView": 6,
			"componentType": 5126,
			"count": 2304,
			"type": "VEC3",
			"min": [-1, -1, -1],
			"max": [1, 1, 1]
		}
	],
	"buffers": [
		{
			"uri": "testGLTF_data.bin",
			"byteLength": 92376,
			"name": "main_buffer"
		}
	],
	"bufferViews": [
		{
			"buffer": 0,
			"byteLength": 1080,
			"target": 34963
		},
		{
			"buffer": 0,
			"byteOffset": 1080,
			"byteLength": 6480,
			"target": 34962
		},
		{
			"buffer": 0,
			"byteOffset": 7560,
			"byteLength": 6480,
			"target": 34962
		},
		{
			"buffer": 0,
			"byteOffset": 14040,
			"byteLength": 4608,
			"target": 34963
		},
		{
			"buffer": 0,
			"byteOffset": 18648,
			"byteLength": 27648,
			"target": 34962
		},
		{
			"buffer": 0,
			"byteOffset": 46296,
			"byteLength": 18432,
			"target": 34962
		},
		{
			"buffer": 0,
			"byteOffset": 64728,
			"byteLength": 27648,
			"target": 34962
		}
	],
	"nodes": [
		{
			"children": [1, 2],
			"name": "Root"
		},
		{
			"name": "grid1",
			"mesh": 0
		},
		{
			"name": "sphere1",
			"mesh": 1
		}
	],
	"meshes": [
		{
			"primitives": [
				{
					"attributes": {
						"NORMAL": 2,
						"POSITION": 1
					},
					"indices": 0,
					"material": 0
				}
			]
		},
		{
			"primitives": [
				{
					"attributes": {
						"NORMAL": 6,
						"TEXCOORD_0": 5,
						"POSITION": 4
					},
					"indices": 3,
					"material": 0
				}
			]
		}
	],
	"materials": [
		{
			"name": "sphere_and_ground",
			"pbrMetallicRoughness": {
				"baseColorFactor": [0.200000003, 0.200000003, 0.200000003, 1],
				"metallicFactor": 0
			}
		}
	],
	"scenes": [
		{
			"nodes": [0]
		}
	],
	"scene": 0
}
